# xmcd
#
# Track frame offsets:
#	150
#	19805
#	36440
#	50472
#	64987
#	78722
#	92115
#	102742
#	118697
#	136765
#	148525
#
# Disc length: 2243 seconds
#
# Revision: 3
# Processed by: cddbd v1.5.2PL0 Copyright (c) Steve Scherf et al.
# Submitted via: audiograbber 1.83.01
#
DISCID=a008c10b
DTITLE=Muddy Shoes - The Real Shuffling Hungarians
DYEAR=1997
DGENRE=Blues
TTITLE0=I Wanna Make Love To You
TTITLE1=Hey Now Baby
TTITLE2=Walkin' And Cryin'
TTITLE3=My Baby
TTITLE4=Vickburg Blues
TTITLE5=Anna Lou
TTITLE6=Tipitina/Alberta
TTITLE7=Trouble In Mind
TTITLE8=Pain In My Heart
TTITLE9=Do You Know What It Means To Miss New Orleans
TTITLE10=It Ain't Nobody's Business
EXTD=
EXTT0=
EXTT1=
EXTT2=
EXTT3=
EXTT4=
EXTT5=
EXTT6=
EXTT7=
EXTT8=
EXTT9=
EXTT10=
PLAYORDER=
